<mxfile host="app.diagrams.net" modified="2022-07-13T13:59:21.091Z" agent="5.0 (Macintosh; Intel Mac OS X 10_15_7) AppleWebKit/537.36 (KHTML, like Gecko) Chrome/103.0.0.0 Safari/537.36" etag="xdgEynFNJoDfBAqvodg3" version="20.0.4" type="github">
  <diagram id="dNpaaLyYjejakmgUh9bT" name="Page-1">
    <mxGraphModel dx="1060" dy="617" grid="1" gridSize="10" guides="1" tooltips="1" connect="1" arrows="1" fold="1" page="1" pageScale="1" pageWidth="2336" pageHeight="1654" math="0" shadow="0">
      <root>
        <mxCell id="0" />
        <mxCell id="1" parent="0" />
        <mxCell id="cf06Xw0DI_L7y3Jn1LJ6-43" value="" style="rounded=1;whiteSpace=wrap;html=1;fontSize=13;fontColor=#000000;fillColor=none;gradientColor=none;strokeColor=#FF9933;dashed=1;" vertex="1" parent="1">
          <mxGeometry x="1322.5" y="537.5" width="331" height="202" as="geometry" />
        </mxCell>
        <mxCell id="cf06Xw0DI_L7y3Jn1LJ6-11" value="" style="rounded=1;whiteSpace=wrap;html=1;fontSize=13;fontColor=#000000;fillColor=none;gradientColor=none;strokeColor=#FF9933;dashed=1;" vertex="1" parent="1">
          <mxGeometry x="1855" y="731" width="394" height="189" as="geometry" />
        </mxCell>
        <mxCell id="cf06Xw0DI_L7y3Jn1LJ6-4" value="" style="rounded=1;whiteSpace=wrap;html=1;fontSize=13;fontColor=#000000;fillColor=none;gradientColor=none;strokeColor=#FF9933;dashed=1;" vertex="1" parent="1">
          <mxGeometry x="1543" y="829.5" width="260" height="153.5" as="geometry" />
        </mxCell>
        <mxCell id="cT7mzf2L48LDg-ybeG4r-135" value="" style="rounded=1;whiteSpace=wrap;html=1;fontSize=13;fontColor=#000000;fillColor=none;gradientColor=none;strokeColor=#FF9933;dashed=1;" parent="1" vertex="1">
          <mxGeometry x="1403" y="804" width="410" height="189" as="geometry" />
        </mxCell>
        <mxCell id="cT7mzf2L48LDg-ybeG4r-105" value="connects an on-premises software&lt;br&gt;appliance with Cloudd based &lt;br&gt;storage. &lt;br&gt;Provide a seamless and secure &lt;br&gt;integration between your &lt;br&gt;on-premises and AWS storage &lt;br&gt;in the AWS Cloud&amp;nbsp;" style="text;html=1;align=left;verticalAlign=middle;resizable=0;points=[];autosize=1;strokeColor=none;fillColor=none;fontSize=12;fontColor=#000000;" parent="1" vertex="1">
          <mxGeometry x="1654" y="242" width="210" height="110" as="geometry" />
        </mxCell>
        <mxCell id="cT7mzf2L48LDg-ybeG4r-103" value="" style="ellipse;whiteSpace=wrap;html=1;fontSize=10;fontColor=#FF3333;fillColor=none;" parent="1" vertex="1">
          <mxGeometry x="998.3800000000001" y="606" width="153" height="95" as="geometry" />
        </mxCell>
        <mxCell id="cT7mzf2L48LDg-ybeG4r-44" value="multiattach&lt;br&gt;supported" style="text;html=1;align=center;verticalAlign=middle;resizable=0;points=[];autosize=1;strokeColor=none;fillColor=none;fontSize=10;" parent="1" vertex="1">
          <mxGeometry x="173" y="405" width="70" height="40" as="geometry" />
        </mxCell>
        <mxCell id="8cmZsePVAe2AZ6mUPZ-U-2" value="Storage" style="rounded=1;whiteSpace=wrap;html=1;fillColor=none;" parent="1" vertex="1">
          <mxGeometry x="496" y="39" width="150" height="70" as="geometry" />
        </mxCell>
        <mxCell id="8cmZsePVAe2AZ6mUPZ-U-6" value="&lt;font style=&quot;font-size: 12px;&quot;&gt;Amazon &lt;br&gt;EBS&lt;/font&gt;" style="outlineConnect=0;dashed=0;verticalLabelPosition=bottom;verticalAlign=top;align=center;html=1;shape=mxgraph.aws3.volume;fillColor=#E05243;gradientColor=none;fontSize=14;aspect=fixed;" parent="1" vertex="1">
          <mxGeometry x="131" y="151" width="46" height="46" as="geometry" />
        </mxCell>
        <mxCell id="8cmZsePVAe2AZ6mUPZ-U-7" value="EFS" style="outlineConnect=0;dashed=0;verticalLabelPosition=bottom;verticalAlign=top;align=center;html=1;shape=mxgraph.aws3.efs;fillColor=#E05243;gradientColor=none;fontSize=12;fontColor=#000033;strokeColor=#3399FF;strokeWidth=1;aspect=fixed;" parent="1" vertex="1">
          <mxGeometry x="854" y="155" width="46" height="52.9" as="geometry" />
        </mxCell>
        <mxCell id="8cmZsePVAe2AZ6mUPZ-U-8" value="Amazon&lt;br&gt;S3" style="sketch=0;points=[[0,0,0],[0.25,0,0],[0.5,0,0],[0.75,0,0],[1,0,0],[0,1,0],[0.25,1,0],[0.5,1,0],[0.75,1,0],[1,1,0],[0,0.25,0],[0,0.5,0],[0,0.75,0],[1,0.25,0],[1,0.5,0],[1,0.75,0]];outlineConnect=0;fontColor=#232F3E;gradientColor=#60A337;gradientDirection=north;fillColor=#277116;strokeColor=#ffffff;dashed=0;verticalLabelPosition=bottom;verticalAlign=top;align=center;html=1;fontSize=12;fontStyle=0;shape=mxgraph.aws4.resourceIcon;resIcon=mxgraph.aws4.s3;aspect=fixed;" parent="1" vertex="1">
          <mxGeometry x="1051" y="151" width="46" height="46" as="geometry" />
        </mxCell>
        <mxCell id="8cmZsePVAe2AZ6mUPZ-U-9" value="Amazon&lt;br&gt;Backup" style="sketch=0;points=[[0,0,0],[0.25,0,0],[0.5,0,0],[0.75,0,0],[1,0,0],[0,1,0],[0.25,1,0],[0.5,1,0],[0.75,1,0],[1,1,0],[0,0.25,0],[0,0.5,0],[0,0.75,0],[1,0.25,0],[1,0.5,0],[1,0.75,0]];outlineConnect=0;fontColor=#232F3E;gradientColor=#60A337;gradientDirection=north;fillColor=#277116;strokeColor=#ffffff;dashed=0;verticalLabelPosition=bottom;verticalAlign=top;align=center;html=1;fontSize=12;fontStyle=0;aspect=fixed;shape=mxgraph.aws4.resourceIcon;resIcon=mxgraph.aws4.backup;" parent="1" vertex="1">
          <mxGeometry x="1372" y="151" width="46" height="46" as="geometry" />
        </mxCell>
        <mxCell id="8cmZsePVAe2AZ6mUPZ-U-11" value="Amazon&lt;br&gt;Storage Gateway" style="sketch=0;points=[[0,0,0],[0.25,0,0],[0.5,0,0],[0.75,0,0],[1,0,0],[0,1,0],[0.25,1,0],[0.5,1,0],[0.75,1,0],[1,1,0],[0,0.25,0],[0,0.5,0],[0,0.75,0],[1,0.25,0],[1,0.5,0],[1,0.75,0]];outlineConnect=0;fontColor=#232F3E;gradientColor=#60A337;gradientDirection=north;fillColor=#277116;strokeColor=#ffffff;dashed=0;verticalLabelPosition=bottom;verticalAlign=top;align=center;html=1;fontSize=12;fontStyle=0;shape=mxgraph.aws4.resourceIcon;resIcon=mxgraph.aws4.storage_gateway;aspect=fixed;" parent="1" vertex="1">
          <mxGeometry x="1687" y="151" width="46" height="46" as="geometry" />
        </mxCell>
        <mxCell id="8cmZsePVAe2AZ6mUPZ-U-12" value="" style="shape=partialRectangle;whiteSpace=wrap;html=1;bottom=1;right=1;left=1;top=0;fillColor=none;routingCenterX=-0.5;rotation=-180;direction=east;" parent="1" vertex="1">
          <mxGeometry x="150.5" y="131" width="1866.5" height="15" as="geometry" />
        </mxCell>
        <mxCell id="8cmZsePVAe2AZ6mUPZ-U-13" value="" style="line;strokeWidth=2;direction=south;html=1;" parent="1" vertex="1">
          <mxGeometry x="558.5" y="110" width="20" height="22.5" as="geometry" />
        </mxCell>
        <mxCell id="8cmZsePVAe2AZ6mUPZ-U-16" value="" style="endArrow=none;html=1;rounded=0;fontSize=12;" parent="1" edge="1">
          <mxGeometry width="50" height="50" relative="1" as="geometry">
            <mxPoint x="876" y="151" as="sourcePoint" />
            <mxPoint x="876" y="132" as="targetPoint" />
          </mxGeometry>
        </mxCell>
        <mxCell id="8cmZsePVAe2AZ6mUPZ-U-17" value="" style="endArrow=none;html=1;rounded=0;fontSize=12;" parent="1" edge="1">
          <mxGeometry width="50" height="50" relative="1" as="geometry">
            <mxPoint x="1069" y="151" as="sourcePoint" />
            <mxPoint x="1069" y="132" as="targetPoint" />
          </mxGeometry>
        </mxCell>
        <mxCell id="8cmZsePVAe2AZ6mUPZ-U-18" value="" style="endArrow=none;html=1;rounded=0;fontSize=12;" parent="1" edge="1">
          <mxGeometry width="50" height="50" relative="1" as="geometry">
            <mxPoint x="1392" y="150" as="sourcePoint" />
            <mxPoint x="1392" y="131" as="targetPoint" />
          </mxGeometry>
        </mxCell>
        <mxCell id="8cmZsePVAe2AZ6mUPZ-U-19" value="" style="endArrow=none;html=1;rounded=0;fontSize=12;" parent="1" edge="1">
          <mxGeometry width="50" height="50" relative="1" as="geometry">
            <mxPoint x="1711" y="151" as="sourcePoint" />
            <mxPoint x="1711" y="132" as="targetPoint" />
          </mxGeometry>
        </mxCell>
        <mxCell id="8cmZsePVAe2AZ6mUPZ-U-20" value="" style="sketch=0;points=[[0,0,0],[0.25,0,0],[0.5,0,0],[0.75,0,0],[1,0,0],[0,1,0],[0.25,1,0],[0.5,1,0],[0.75,1,0],[1,1,0],[0,0.25,0],[0,0.5,0],[0,0.75,0],[1,0.25,0],[1,0.5,0],[1,0.75,0]];outlineConnect=0;fontColor=#232F3E;gradientColor=#60A337;gradientDirection=north;fillColor=#277116;strokeColor=#ffffff;dashed=0;verticalLabelPosition=bottom;verticalAlign=top;align=center;html=1;fontSize=12;fontStyle=0;aspect=fixed;shape=mxgraph.aws4.resourceIcon;resIcon=mxgraph.aws4.fsx;" parent="1" vertex="1">
          <mxGeometry x="1996" y="148" width="46" height="46" as="geometry" />
        </mxCell>
        <mxCell id="cT7mzf2L48LDg-ybeG4r-1" value="&lt;font style=&quot;font-size: 14px;&quot;&gt;Volume&lt;/font&gt;" style="rounded=1;whiteSpace=wrap;html=1;fillColor=none;" parent="1" vertex="1">
          <mxGeometry x="58" y="278" width="60" height="30" as="geometry" />
        </mxCell>
        <mxCell id="cT7mzf2L48LDg-ybeG4r-2" value="&lt;font style=&quot;font-size: 14px;&quot;&gt;Snapshot&lt;/font&gt;" style="rounded=1;whiteSpace=wrap;html=1;fillColor=none;" parent="1" vertex="1">
          <mxGeometry x="537" y="279" width="74" height="30" as="geometry" />
        </mxCell>
        <mxCell id="cT7mzf2L48LDg-ybeG4r-3" value="" style="strokeWidth=1;html=1;shape=mxgraph.flowchart.annotation_1;align=left;pointerEvents=1;direction=south;" parent="1" vertex="1">
          <mxGeometry x="80" y="262" width="500" height="15" as="geometry" />
        </mxCell>
        <mxCell id="cT7mzf2L48LDg-ybeG4r-5" value="" style="endArrow=none;html=1;rounded=0;" parent="1" edge="1">
          <mxGeometry width="50" height="50" relative="1" as="geometry">
            <mxPoint x="151" y="261" as="sourcePoint" />
            <mxPoint x="151" y="241" as="targetPoint" />
          </mxGeometry>
        </mxCell>
        <mxCell id="cT7mzf2L48LDg-ybeG4r-7" value="" style="strokeWidth=1;html=1;shape=mxgraph.flowchart.annotation_1;align=left;pointerEvents=1;direction=south;" parent="1" vertex="1">
          <mxGeometry x="57" y="330" width="373" height="15" as="geometry" />
        </mxCell>
        <mxCell id="cT7mzf2L48LDg-ybeG4r-8" value="" style="endArrow=none;html=1;rounded=0;" parent="1" edge="1">
          <mxGeometry width="50" height="50" relative="1" as="geometry">
            <mxPoint x="84" y="329" as="sourcePoint" />
            <mxPoint x="84" y="309" as="targetPoint" />
          </mxGeometry>
        </mxCell>
        <mxCell id="cT7mzf2L48LDg-ybeG4r-9" value="" style="sketch=0;pointerEvents=1;shadow=0;dashed=0;html=1;strokeColor=none;fillColor=#000033;labelPosition=center;verticalLabelPosition=bottom;verticalAlign=top;align=center;outlineConnect=0;shape=mxgraph.vvd.ssd;fontSize=14;" parent="1" vertex="1">
          <mxGeometry x="36" y="344" width="50" height="34" as="geometry" />
        </mxCell>
        <mxCell id="cT7mzf2L48LDg-ybeG4r-11" value="&lt;font style=&quot;font-size: 10px;&quot;&gt;HDD&lt;/font&gt;" style="sketch=0;pointerEvents=1;shadow=0;dashed=0;html=1;strokeColor=none;fillColor=#000033;labelPosition=center;verticalLabelPosition=bottom;verticalAlign=top;outlineConnect=0;align=center;shape=mxgraph.office.devices.hard_disk;fontSize=14;" parent="1" vertex="1">
          <mxGeometry x="309" y="344" width="40" height="49" as="geometry" />
        </mxCell>
        <mxCell id="cT7mzf2L48LDg-ybeG4r-12" value="" style="endArrow=none;html=1;rounded=0;" parent="1" edge="1">
          <mxGeometry width="50" height="50" relative="1" as="geometry">
            <mxPoint x="329" y="344" as="sourcePoint" />
            <mxPoint x="329" y="330" as="targetPoint" />
          </mxGeometry>
        </mxCell>
        <mxCell id="cT7mzf2L48LDg-ybeG4r-13" value="&lt;font style=&quot;font-size: 12px;&quot;&gt;Previous Generation&lt;/font&gt;" style="rounded=1;whiteSpace=wrap;html=1;fillColor=none;fontSize=12;" parent="1" vertex="1">
          <mxGeometry x="390" y="345.5" width="74" height="30" as="geometry" />
        </mxCell>
        <mxCell id="cT7mzf2L48LDg-ybeG4r-14" value="" style="strokeWidth=1;html=1;shape=mxgraph.flowchart.annotation_1;align=left;pointerEvents=1;direction=south;" parent="1" vertex="1">
          <mxGeometry x="519" y="330" width="131" height="15" as="geometry" />
        </mxCell>
        <mxCell id="cT7mzf2L48LDg-ybeG4r-16" value="" style="endArrow=none;html=1;rounded=0;" parent="1" edge="1">
          <mxGeometry width="50" height="50" relative="1" as="geometry">
            <mxPoint x="571" y="330" as="sourcePoint" />
            <mxPoint x="571" y="310" as="targetPoint" />
          </mxGeometry>
        </mxCell>
        <mxCell id="cT7mzf2L48LDg-ybeG4r-17" value="&lt;font style=&quot;font-size: 12px;&quot;&gt;SnapShot archive&lt;/font&gt;" style="rounded=1;whiteSpace=wrap;html=1;fillColor=none;fontSize=12;" parent="1" vertex="1">
          <mxGeometry x="492" y="344.5" width="74" height="30" as="geometry" />
        </mxCell>
        <mxCell id="cT7mzf2L48LDg-ybeG4r-18" value="&lt;font style=&quot;font-size: 12px;&quot;&gt;snapshot&lt;/font&gt;" style="rounded=1;whiteSpace=wrap;html=1;fillColor=none;fontSize=12;" parent="1" vertex="1">
          <mxGeometry x="615" y="346" width="74" height="30" as="geometry" />
        </mxCell>
        <mxCell id="cT7mzf2L48LDg-ybeG4r-19" value="persistent block storage&amp;nbsp;&lt;br&gt;volume for EC2 Instances&lt;br&gt;low latency" style="text;html=1;align=left;verticalAlign=middle;resizable=0;points=[];autosize=1;strokeColor=none;fillColor=none;fontSize=12;" parent="1" vertex="1">
          <mxGeometry x="125" y="270" width="160" height="60" as="geometry" />
        </mxCell>
        <mxCell id="cT7mzf2L48LDg-ybeG4r-20" value="" style="strokeWidth=1;html=1;shape=mxgraph.flowchart.annotation_1;align=left;pointerEvents=1;fontColor=#000033;fillColor=none;strokeColor=#3399FF;" parent="1" vertex="1">
          <mxGeometry x="123" y="280" width="12" height="41" as="geometry" />
        </mxCell>
        <mxCell id="cT7mzf2L48LDg-ybeG4r-21" value="" style="strokeWidth=1;html=1;shape=mxgraph.flowchart.annotation_1;align=left;pointerEvents=1;fontColor=#000033;fillColor=none;direction=west;strokeColor=#3399FF;" parent="1" vertex="1">
          <mxGeometry x="253" y="279" width="12" height="41" as="geometry" />
        </mxCell>
        <mxCell id="cT7mzf2L48LDg-ybeG4r-22" value="" style="endArrow=none;html=1;rounded=0;" parent="1" edge="1">
          <mxGeometry width="50" height="50" relative="1" as="geometry">
            <mxPoint x="57" y="390" as="sourcePoint" />
            <mxPoint x="57" y="379" as="targetPoint" />
          </mxGeometry>
        </mxCell>
        <mxCell id="cT7mzf2L48LDg-ybeG4r-25" value="" style="strokeWidth=1;html=1;shape=mxgraph.flowchart.annotation_1;align=left;pointerEvents=1;direction=south;" parent="1" vertex="1">
          <mxGeometry x="37" y="390" width="92" height="15" as="geometry" />
        </mxCell>
        <mxCell id="cT7mzf2L48LDg-ybeG4r-26" value="General&amp;nbsp;&lt;br&gt;Purpose" style="text;html=1;align=center;verticalAlign=middle;resizable=0;points=[];autosize=1;strokeColor=none;fillColor=none;fontSize=12;" parent="1" vertex="1">
          <mxGeometry x="7" y="404" width="70" height="40" as="geometry" />
        </mxCell>
        <mxCell id="cT7mzf2L48LDg-ybeG4r-27" value="Provisioned&amp;nbsp;&lt;br&gt;IOPS SSD" style="text;html=1;align=center;verticalAlign=middle;resizable=0;points=[];autosize=1;strokeColor=none;fillColor=none;fontSize=12;" parent="1" vertex="1">
          <mxGeometry x="100" y="405" width="90" height="40" as="geometry" />
        </mxCell>
        <mxCell id="cT7mzf2L48LDg-ybeG4r-28" value="" style="endArrow=none;html=1;rounded=0;" parent="1" edge="1">
          <mxGeometry width="50" height="50" relative="1" as="geometry">
            <mxPoint x="20" y="482" as="sourcePoint" />
            <mxPoint x="33" y="448" as="targetPoint" />
          </mxGeometry>
        </mxCell>
        <mxCell id="cT7mzf2L48LDg-ybeG4r-29" value="gp2" style="text;html=1;align=center;verticalAlign=middle;resizable=0;points=[];autosize=1;strokeColor=none;fillColor=none;fontSize=12;" parent="1" vertex="1">
          <mxGeometry y="476" width="40" height="30" as="geometry" />
        </mxCell>
        <mxCell id="cT7mzf2L48LDg-ybeG4r-31" value="gp3&lt;br&gt;&lt;b&gt;+&lt;/b&gt;&lt;br&gt;additional&amp;nbsp;&lt;br&gt;IOP" style="text;html=1;align=center;verticalAlign=middle;resizable=0;points=[];autosize=1;strokeColor=none;fillColor=none;fontSize=12;" parent="1" vertex="1">
          <mxGeometry x="23" y="479" width="80" height="70" as="geometry" />
        </mxCell>
        <mxCell id="cT7mzf2L48LDg-ybeG4r-34" value="" style="endArrow=none;html=1;rounded=0;" parent="1" edge="1">
          <mxGeometry width="50" height="50" relative="1" as="geometry">
            <mxPoint x="63" y="483" as="sourcePoint" />
            <mxPoint x="54" y="449" as="targetPoint" />
          </mxGeometry>
        </mxCell>
        <mxCell id="cT7mzf2L48LDg-ybeG4r-35" value="" style="endArrow=none;html=1;rounded=0;" parent="1" edge="1">
          <mxGeometry width="50" height="50" relative="1" as="geometry">
            <mxPoint x="118" y="477" as="sourcePoint" />
            <mxPoint x="131" y="443" as="targetPoint" />
          </mxGeometry>
        </mxCell>
        <mxCell id="cT7mzf2L48LDg-ybeG4r-36" value="" style="endArrow=none;html=1;rounded=0;" parent="1" edge="1">
          <mxGeometry width="50" height="50" relative="1" as="geometry">
            <mxPoint x="161" y="478" as="sourcePoint" />
            <mxPoint x="152" y="444" as="targetPoint" />
          </mxGeometry>
        </mxCell>
        <mxCell id="cT7mzf2L48LDg-ybeG4r-37" value="" style="endArrow=none;html=1;rounded=0;" parent="1" edge="1">
          <mxGeometry width="50" height="50" relative="1" as="geometry">
            <mxPoint x="142" y="500" as="sourcePoint" />
            <mxPoint x="142" y="445" as="targetPoint" />
          </mxGeometry>
        </mxCell>
        <mxCell id="cT7mzf2L48LDg-ybeG4r-38" value="io1" style="text;html=1;align=center;verticalAlign=middle;resizable=0;points=[];autosize=1;strokeColor=none;fillColor=none;fontSize=12;" parent="1" vertex="1">
          <mxGeometry x="144" y="470" width="40" height="30" as="geometry" />
        </mxCell>
        <mxCell id="cT7mzf2L48LDg-ybeG4r-39" value="io2" style="text;html=1;align=center;verticalAlign=middle;resizable=0;points=[];autosize=1;strokeColor=none;fillColor=none;fontSize=12;" parent="1" vertex="1">
          <mxGeometry x="98" y="469" width="40" height="30" as="geometry" />
        </mxCell>
        <mxCell id="cT7mzf2L48LDg-ybeG4r-40" value="io2 Block &lt;br&gt;Express" style="text;html=1;align=center;verticalAlign=middle;resizable=0;points=[];autosize=1;strokeColor=none;fillColor=none;fontSize=12;" parent="1" vertex="1">
          <mxGeometry x="116" y="499" width="70" height="40" as="geometry" />
        </mxCell>
        <mxCell id="cT7mzf2L48LDg-ybeG4r-42" value="" style="strokeWidth=1;html=1;shape=mxgraph.flowchart.annotation_1;align=left;pointerEvents=1;fontColor=#000033;fillColor=none;strokeColor=#3399FF;" parent="1" vertex="1">
          <mxGeometry x="181" y="411.5" width="12" height="27" as="geometry" />
        </mxCell>
        <mxCell id="cT7mzf2L48LDg-ybeG4r-43" value="" style="strokeWidth=1;html=1;shape=mxgraph.flowchart.annotation_1;align=left;pointerEvents=1;fontColor=#000033;fillColor=none;direction=west;strokeColor=#3399FF;" parent="1" vertex="1">
          <mxGeometry x="222" y="411.5" width="12" height="27" as="geometry" />
        </mxCell>
        <mxCell id="cT7mzf2L48LDg-ybeG4r-47" value="" style="endArrow=none;html=1;rounded=0;" parent="1" edge="1">
          <mxGeometry width="50" height="50" relative="1" as="geometry">
            <mxPoint x="329" y="431" as="sourcePoint" />
            <mxPoint x="329" y="420" as="targetPoint" />
          </mxGeometry>
        </mxCell>
        <mxCell id="cT7mzf2L48LDg-ybeG4r-48" value="" style="strokeWidth=1;html=1;shape=mxgraph.flowchart.annotation_1;align=left;pointerEvents=1;direction=south;" parent="1" vertex="1">
          <mxGeometry x="290" y="431" width="111" height="15" as="geometry" />
        </mxCell>
        <mxCell id="cT7mzf2L48LDg-ybeG4r-49" value="&lt;span style=&quot;font-size: 12px;&quot;&gt;throughput&lt;br&gt;optimized&lt;br&gt;HDD&lt;br&gt;&lt;/span&gt;" style="text;html=1;align=center;verticalAlign=middle;resizable=0;points=[];autosize=1;strokeColor=none;fillColor=none;fontSize=10;" parent="1" vertex="1">
          <mxGeometry x="253" y="438" width="80" height="60" as="geometry" />
        </mxCell>
        <mxCell id="cT7mzf2L48LDg-ybeG4r-50" value="Cold&lt;br&gt;Hdd" style="text;html=1;align=center;verticalAlign=middle;resizable=0;points=[];autosize=1;strokeColor=none;fillColor=none;fontSize=12;" parent="1" vertex="1">
          <mxGeometry x="376" y="441" width="50" height="40" as="geometry" />
        </mxCell>
        <mxCell id="cT7mzf2L48LDg-ybeG4r-51" value="&lt;font style=&quot;font-size: 10px;&quot;&gt;Low cost for&amp;nbsp;&lt;br&gt;frequently accesed&lt;/font&gt;" style="text;html=1;align=left;verticalAlign=middle;resizable=0;points=[];autosize=1;strokeColor=none;fillColor=none;fontSize=12;" parent="1" vertex="1">
          <mxGeometry x="256" y="486" width="110" height="40" as="geometry" />
        </mxCell>
        <mxCell id="cT7mzf2L48LDg-ybeG4r-53" value="" style="strokeWidth=1;html=1;shape=mxgraph.flowchart.annotation_1;align=left;pointerEvents=1;fontColor=#000033;fillColor=none;strokeColor=#3399FF;" parent="1" vertex="1">
          <mxGeometry x="255" y="491" width="12" height="27" as="geometry" />
        </mxCell>
        <mxCell id="cT7mzf2L48LDg-ybeG4r-54" value="" style="strokeWidth=1;html=1;shape=mxgraph.flowchart.annotation_1;align=left;pointerEvents=1;fontColor=#000033;fillColor=none;direction=west;strokeColor=#3399FF;" parent="1" vertex="1">
          <mxGeometry x="330" y="491" width="12" height="27" as="geometry" />
        </mxCell>
        <mxCell id="cT7mzf2L48LDg-ybeG4r-55" value="&lt;b&gt;&lt;font color=&quot;#ff3333&quot;&gt;lowest cost&lt;/font&gt;&lt;/b&gt;" style="text;html=1;align=center;verticalAlign=middle;resizable=0;points=[];autosize=1;strokeColor=none;fillColor=none;fontSize=10;" parent="1" vertex="1">
          <mxGeometry x="365" y="468" width="80" height="30" as="geometry" />
        </mxCell>
        <mxCell id="cT7mzf2L48LDg-ybeG4r-56" value="" style="strokeWidth=1;html=1;shape=mxgraph.flowchart.annotation_1;align=left;pointerEvents=1;fontColor=#000033;fillColor=none;strokeColor=#3399FF;" parent="1" vertex="1">
          <mxGeometry x="376" y="474" width="12" height="13" as="geometry" />
        </mxCell>
        <mxCell id="cT7mzf2L48LDg-ybeG4r-57" value="" style="strokeWidth=1;html=1;shape=mxgraph.flowchart.annotation_1;align=left;pointerEvents=1;fontColor=#000033;fillColor=none;direction=west;strokeColor=#3399FF;" parent="1" vertex="1">
          <mxGeometry x="422" y="474" width="12" height="13" as="geometry" />
        </mxCell>
        <mxCell id="cT7mzf2L48LDg-ybeG4r-58" value="&lt;font color=&quot;#000000&quot; style=&quot;font-size: 10px;&quot;&gt;Object storage&amp;nbsp; &lt;br&gt;Service&amp;nbsp;&lt;/font&gt;" style="text;html=1;align=left;verticalAlign=middle;resizable=0;points=[];autosize=1;strokeColor=none;fillColor=none;fontSize=12;fontColor=#FF3333;" parent="1" vertex="1">
          <mxGeometry x="1104" y="197.9" width="90" height="40" as="geometry" />
        </mxCell>
        <mxCell id="cT7mzf2L48LDg-ybeG4r-59" value="Use case:&amp;nbsp; &lt;br&gt;Web sites, movile apps, &lt;br&gt;backup restore files,&lt;br&gt;&amp;nbsp;bigdata analytics&amp;nbsp;" style="text;html=1;align=left;verticalAlign=middle;resizable=0;points=[];autosize=1;strokeColor=none;fillColor=none;fontSize=12;fontColor=#000000;" parent="1" vertex="1">
          <mxGeometry x="1023.6300000000001" y="618.5" width="150" height="70" as="geometry" />
        </mxCell>
        <mxCell id="cT7mzf2L48LDg-ybeG4r-61" value="Centralice and automate &lt;br&gt;data protection accross &lt;br&gt;AWS services&amp;nbsp; &amp;nbsp;" style="text;html=1;align=center;verticalAlign=middle;resizable=0;points=[];autosize=1;strokeColor=none;fillColor=none;fontSize=12;fontColor=#000000;fontStyle=1" parent="1" vertex="1">
          <mxGeometry x="1323" y="230" width="160" height="60" as="geometry" />
        </mxCell>
        <mxCell id="cT7mzf2L48LDg-ybeG4r-62" value="Use case:&lt;br&gt;To configure backup policies &lt;br&gt;Monitor activites for AWS resources &lt;br&gt;in ONE place&lt;br&gt;Automate and consolidate backup task" style="text;html=1;align=left;verticalAlign=middle;resizable=0;points=[];autosize=1;strokeColor=none;fillColor=none;fontSize=12;fontColor=#000000;" parent="1" vertex="1">
          <mxGeometry x="1311" y="278.5" width="230" height="90" as="geometry" />
        </mxCell>
        <mxCell id="cT7mzf2L48LDg-ybeG4r-63" value="" style="strokeWidth=1;html=1;shape=mxgraph.flowchart.annotation_1;align=left;pointerEvents=1;fontColor=#000033;fillColor=none;strokeColor=#3399FF;" parent="1" vertex="1">
          <mxGeometry x="1314" y="288" width="6" height="70" as="geometry" />
        </mxCell>
        <mxCell id="cT7mzf2L48LDg-ybeG4r-64" value="" style="strokeWidth=1;html=1;shape=mxgraph.flowchart.annotation_1;align=left;pointerEvents=1;fontColor=#000033;fillColor=none;direction=west;strokeColor=#3399FF;" parent="1" vertex="1">
          <mxGeometry x="1508" y="288" width="12" height="70" as="geometry" />
        </mxCell>
        <mxCell id="cT7mzf2L48LDg-ybeG4r-67" value="" style="strokeWidth=1;html=1;shape=mxgraph.flowchart.annotation_1;align=left;pointerEvents=1;fontColor=#000033;fillColor=none;strokeColor=#3399FF;" parent="1" vertex="1">
          <mxGeometry x="1655" y="247" width="12" height="98" as="geometry" />
        </mxCell>
        <mxCell id="cT7mzf2L48LDg-ybeG4r-68" value="" style="strokeWidth=1;html=1;shape=mxgraph.flowchart.annotation_1;align=left;pointerEvents=1;fontColor=#000033;fillColor=none;direction=west;strokeColor=#3399FF;" parent="1" vertex="1">
          <mxGeometry x="1827" y="247" width="12" height="98" as="geometry" />
        </mxCell>
        <mxCell id="cT7mzf2L48LDg-ybeG4r-75" value="&lt;b&gt;&lt;font color=&quot;#ff3333&quot;&gt;info can be found on&amp;nbsp;&lt;br&gt;datastorage_serverless&amp;nbsp;&lt;br&gt;diagram&lt;/font&gt;&lt;/b&gt;" style="text;html=1;align=center;verticalAlign=middle;resizable=0;points=[];autosize=1;strokeColor=none;fillColor=none;fontSize=12;fontColor=#000000;" parent="1" vertex="1">
          <mxGeometry x="802" y="227" width="160" height="60" as="geometry" />
        </mxCell>
        <mxCell id="cT7mzf2L48LDg-ybeG4r-76" value="" style="endArrow=none;html=1;rounded=0;fontSize=12;" parent="1" edge="1">
          <mxGeometry width="50" height="50" relative="1" as="geometry">
            <mxPoint x="1070" y="280" as="sourcePoint" />
            <mxPoint x="1070" y="244" as="targetPoint" />
          </mxGeometry>
        </mxCell>
        <mxCell id="cT7mzf2L48LDg-ybeG4r-79" value="Storage&lt;br&gt;Classes" style="text;html=1;align=center;verticalAlign=middle;resizable=0;points=[];autosize=1;strokeColor=none;fillColor=none;fontSize=12;fontColor=#000000;" parent="1" vertex="1">
          <mxGeometry x="1037" y="277.5" width="70" height="40" as="geometry" />
        </mxCell>
        <mxCell id="cT7mzf2L48LDg-ybeG4r-80" value="" style="endArrow=none;html=1;rounded=0;" parent="1" edge="1">
          <mxGeometry width="50" height="50" relative="1" as="geometry">
            <mxPoint x="1050" y="356" as="sourcePoint" />
            <mxPoint x="1063" y="322" as="targetPoint" />
          </mxGeometry>
        </mxCell>
        <mxCell id="cT7mzf2L48LDg-ybeG4r-81" value="" style="endArrow=none;html=1;rounded=0;" parent="1" edge="1">
          <mxGeometry width="50" height="50" relative="1" as="geometry">
            <mxPoint x="1093" y="357" as="sourcePoint" />
            <mxPoint x="1084" y="323" as="targetPoint" />
          </mxGeometry>
        </mxCell>
        <mxCell id="cT7mzf2L48LDg-ybeG4r-82" value="" style="endArrow=none;html=1;rounded=0;" parent="1" edge="1">
          <mxGeometry width="50" height="50" relative="1" as="geometry">
            <mxPoint x="1074" y="379" as="sourcePoint" />
            <mxPoint x="1074" y="324" as="targetPoint" />
          </mxGeometry>
        </mxCell>
        <mxCell id="cT7mzf2L48LDg-ybeG4r-83" value="for frequent&lt;br&gt;&amp;nbsp;access" style="text;html=1;align=center;verticalAlign=middle;resizable=0;points=[];autosize=1;strokeColor=none;fillColor=none;fontSize=12;fontColor=#000000;" parent="1" vertex="1">
          <mxGeometry x="989" y="348" width="80" height="40" as="geometry" />
        </mxCell>
        <mxCell id="cT7mzf2L48LDg-ybeG4r-84" value="infrequent&lt;br&gt;&amp;nbsp;access" style="text;html=1;align=center;verticalAlign=middle;resizable=0;points=[];autosize=1;strokeColor=none;fillColor=none;fontSize=12;fontColor=#000000;" parent="1" vertex="1">
          <mxGeometry x="1079" y="351" width="80" height="40" as="geometry" />
        </mxCell>
        <mxCell id="cT7mzf2L48LDg-ybeG4r-85" value="Glacier" style="text;html=1;align=center;verticalAlign=middle;resizable=0;points=[];autosize=1;strokeColor=none;fillColor=none;fontSize=12;fontColor=#000000;" parent="1" vertex="1">
          <mxGeometry x="1045" y="377" width="60" height="30" as="geometry" />
        </mxCell>
        <mxCell id="cT7mzf2L48LDg-ybeG4r-86" value="" style="endArrow=none;html=1;rounded=0;" parent="1" edge="1">
          <mxGeometry width="50" height="50" relative="1" as="geometry">
            <mxPoint x="947" y="413" as="sourcePoint" />
            <mxPoint x="1008" y="386" as="targetPoint" />
          </mxGeometry>
        </mxCell>
        <mxCell id="cT7mzf2L48LDg-ybeG4r-87" value="" style="endArrow=none;html=1;rounded=0;" parent="1" edge="1">
          <mxGeometry width="50" height="50" relative="1" as="geometry">
            <mxPoint x="997" y="433" as="sourcePoint" />
            <mxPoint x="1029" y="387" as="targetPoint" />
          </mxGeometry>
        </mxCell>
        <mxCell id="cT7mzf2L48LDg-ybeG4r-88" value="S3 Standar" style="text;html=1;align=center;verticalAlign=middle;resizable=0;points=[];autosize=1;strokeColor=none;fillColor=none;fontSize=12;fontColor=#000000;" parent="1" vertex="1">
          <mxGeometry x="878" y="408" width="80" height="30" as="geometry" />
        </mxCell>
        <mxCell id="cT7mzf2L48LDg-ybeG4r-89" value="Reducce&amp;nbsp;&lt;br&gt;Redundancy" style="text;html=1;align=left;verticalAlign=middle;resizable=0;points=[];autosize=1;strokeColor=none;fillColor=none;fontSize=12;fontColor=#000000;" parent="1" vertex="1">
          <mxGeometry x="954" y="426" width="90" height="40" as="geometry" />
        </mxCell>
        <mxCell id="cT7mzf2L48LDg-ybeG4r-90" value="S3 Standard-IA" style="text;html=1;align=center;verticalAlign=middle;resizable=0;points=[];autosize=1;strokeColor=none;fillColor=none;fontSize=12;fontColor=#000000;" parent="1" vertex="1">
          <mxGeometry x="1141" y="403" width="110" height="30" as="geometry" />
        </mxCell>
        <mxCell id="cT7mzf2L48LDg-ybeG4r-91" value="S3 One Zone-IA" style="text;html=1;align=center;verticalAlign=middle;resizable=0;points=[];autosize=1;strokeColor=none;fillColor=none;fontSize=12;fontColor=#000000;" parent="1" vertex="1">
          <mxGeometry x="1103" y="434" width="110" height="30" as="geometry" />
        </mxCell>
        <mxCell id="cT7mzf2L48LDg-ybeG4r-92" value="" style="endArrow=none;html=1;rounded=0;" parent="1" edge="1">
          <mxGeometry width="50" height="50" relative="1" as="geometry">
            <mxPoint x="1155" y="410" as="sourcePoint" />
            <mxPoint x="1146" y="376" as="targetPoint" />
          </mxGeometry>
        </mxCell>
        <mxCell id="cT7mzf2L48LDg-ybeG4r-93" value="" style="endArrow=none;html=1;rounded=0;" parent="1" edge="1">
          <mxGeometry width="50" height="50" relative="1" as="geometry">
            <mxPoint x="1127" y="441" as="sourcePoint" />
            <mxPoint x="1127" y="386" as="targetPoint" />
          </mxGeometry>
        </mxCell>
        <mxCell id="cT7mzf2L48LDg-ybeG4r-94" value="" style="endArrow=none;html=1;rounded=0;" parent="1" edge="1">
          <mxGeometry width="50" height="50" relative="1" as="geometry">
            <mxPoint x="1077" y="483" as="sourcePoint" />
            <mxPoint x="1077" y="404" as="targetPoint" />
          </mxGeometry>
        </mxCell>
        <mxCell id="cT7mzf2L48LDg-ybeG4r-95" value="" style="strokeWidth=1;html=1;shape=mxgraph.flowchart.annotation_1;align=left;pointerEvents=1;direction=south;" parent="1" vertex="1">
          <mxGeometry x="1034" y="484" width="99" height="15" as="geometry" />
        </mxCell>
        <mxCell id="cT7mzf2L48LDg-ybeG4r-96" value="Instant Retrieval" style="text;html=1;align=center;verticalAlign=middle;resizable=0;points=[];autosize=1;strokeColor=none;fillColor=none;fontSize=12;fontColor=#000000;" parent="1" vertex="1">
          <mxGeometry x="944" y="493" width="110" height="30" as="geometry" />
        </mxCell>
        <mxCell id="cT7mzf2L48LDg-ybeG4r-97" value="Flexible Retrieval" style="text;html=1;align=center;verticalAlign=middle;resizable=0;points=[];autosize=1;strokeColor=none;fillColor=none;fontSize=12;fontColor=#000000;" parent="1" vertex="1">
          <mxGeometry x="1015" y="533" width="120" height="30" as="geometry" />
        </mxCell>
        <mxCell id="cT7mzf2L48LDg-ybeG4r-98" value="Deep archive" style="text;html=1;align=center;verticalAlign=middle;resizable=0;points=[];autosize=1;strokeColor=none;fillColor=none;fontSize=12;fontColor=#000000;" parent="1" vertex="1">
          <mxGeometry x="1112" y="494" width="90" height="30" as="geometry" />
        </mxCell>
        <mxCell id="cT7mzf2L48LDg-ybeG4r-99" value="" style="endArrow=none;html=1;rounded=0;" parent="1" edge="1">
          <mxGeometry width="50" height="50" relative="1" as="geometry">
            <mxPoint x="1081" y="533" as="sourcePoint" />
            <mxPoint x="1081" y="484" as="targetPoint" />
          </mxGeometry>
        </mxCell>
        <mxCell id="cT7mzf2L48LDg-ybeG4r-100" value="" style="strokeWidth=1;html=1;shape=mxgraph.flowchart.annotation_1;align=left;pointerEvents=1;fontColor=#000033;fillColor=none;strokeColor=#3399FF;" parent="1" vertex="1">
          <mxGeometry x="1103" y="205" width="12" height="27" as="geometry" />
        </mxCell>
        <mxCell id="cT7mzf2L48LDg-ybeG4r-101" value="" style="strokeWidth=1;html=1;shape=mxgraph.flowchart.annotation_1;align=left;pointerEvents=1;fontColor=#000033;fillColor=none;direction=west;strokeColor=#3399FF;" parent="1" vertex="1">
          <mxGeometry x="1160" y="205" width="12" height="27" as="geometry" />
        </mxCell>
        <mxCell id="cT7mzf2L48LDg-ybeG4r-102" value="" style="shape=curlyBracket;whiteSpace=wrap;html=1;rounded=1;flipH=1;fontSize=10;fontColor=#FF3333;fillColor=none;size=0.5;direction=north;" parent="1" vertex="1">
          <mxGeometry x="878" y="575.5" width="390" height="24.5" as="geometry" />
        </mxCell>
        <mxCell id="cT7mzf2L48LDg-ybeG4r-106" value="" style="endArrow=none;html=1;rounded=0;fontSize=12;" parent="1" edge="1">
          <mxGeometry width="50" height="50" relative="1" as="geometry">
            <mxPoint x="1727" y="390" as="sourcePoint" />
            <mxPoint x="1727" y="354" as="targetPoint" />
          </mxGeometry>
        </mxCell>
        <mxCell id="cT7mzf2L48LDg-ybeG4r-110" value="" style="strokeWidth=1;html=1;shape=mxgraph.flowchart.annotation_1;align=left;pointerEvents=1;direction=south;" parent="1" vertex="1">
          <mxGeometry x="1510" y="389" width="430" height="15" as="geometry" />
        </mxCell>
        <mxCell id="cT7mzf2L48LDg-ybeG4r-111" value="Amazon S3&amp;nbsp;&lt;br&gt;FIle Gateway" style="text;html=1;align=center;verticalAlign=middle;resizable=0;points=[];autosize=1;strokeColor=none;fillColor=none;fontSize=12;fontColor=#000000;" parent="1" vertex="1">
          <mxGeometry x="1470" y="406" width="90" height="40" as="geometry" />
        </mxCell>
        <mxCell id="cT7mzf2L48LDg-ybeG4r-112" value="Amazon Fsx&lt;br&gt;File Gateway" style="text;html=1;align=center;verticalAlign=middle;resizable=0;points=[];autosize=1;strokeColor=none;fillColor=none;fontSize=12;fontColor=#000000;" parent="1" vertex="1">
          <mxGeometry x="1896" y="406" width="90" height="40" as="geometry" />
        </mxCell>
        <mxCell id="cT7mzf2L48LDg-ybeG4r-113" value="Tape Gateway" style="text;html=1;align=center;verticalAlign=middle;resizable=0;points=[];autosize=1;strokeColor=none;fillColor=none;fontSize=12;fontColor=#000000;" parent="1" vertex="1">
          <mxGeometry x="1650" y="406" width="100" height="30" as="geometry" />
        </mxCell>
        <mxCell id="cT7mzf2L48LDg-ybeG4r-114" value="Volume Gateway" style="text;html=1;align=center;verticalAlign=middle;resizable=0;points=[];autosize=1;strokeColor=none;fillColor=none;fontSize=12;fontColor=#000000;" parent="1" vertex="1">
          <mxGeometry x="1820" y="544" width="110" height="30" as="geometry" />
        </mxCell>
        <mxCell id="cT7mzf2L48LDg-ybeG4r-115" value="" style="endArrow=none;html=1;rounded=0;" parent="1" edge="1">
          <mxGeometry width="50" height="50" relative="1" as="geometry">
            <mxPoint x="1696" y="403" as="sourcePoint" />
            <mxPoint x="1696" y="389" as="targetPoint" />
          </mxGeometry>
        </mxCell>
        <mxCell id="cT7mzf2L48LDg-ybeG4r-116" value="" style="endArrow=none;html=1;rounded=0;exitX=0.42;exitY=-0.009;exitDx=0;exitDy=0;exitPerimeter=0;" parent="1" edge="1">
          <mxGeometry width="50" height="50" relative="1" as="geometry">
            <mxPoint x="1849.1999999999998" y="543.73" as="sourcePoint" />
            <mxPoint x="1849" y="390" as="targetPoint" />
          </mxGeometry>
        </mxCell>
        <mxCell id="cT7mzf2L48LDg-ybeG4r-117" value="&lt;font style=&quot;font-size: 10px;&quot;&gt;&lt;b&gt;store and retrieve objects &lt;br&gt;in Amazon S3 using &lt;br&gt;industry-standard file &lt;br&gt;protocols such as &lt;br&gt;Network File System (NFS) &lt;br&gt;and Server Message Block (SMB)&lt;/b&gt;&lt;/font&gt;" style="text;html=1;align=left;verticalAlign=middle;resizable=0;points=[];autosize=1;strokeColor=none;fillColor=none;fontSize=12;fontColor=#000000;" parent="1" vertex="1">
          <mxGeometry x="1451" y="440" width="180" height="100" as="geometry" />
        </mxCell>
        <mxCell id="cT7mzf2L48LDg-ybeG4r-118" value="&lt;b&gt;provides cloud-backed storage &lt;br&gt;volumes that you can mount as &lt;br&gt;Internet Small Computer System &lt;br&gt;Interface (iSCSI) devices from your &lt;br&gt;on-premises application servers.&lt;/b&gt;" style="text;html=1;align=center;verticalAlign=middle;resizable=0;points=[];autosize=1;strokeColor=none;fillColor=none;fontSize=10;fontColor=#000000;" parent="1" vertex="1">
          <mxGeometry x="1781" y="570" width="190" height="70" as="geometry" />
        </mxCell>
        <mxCell id="cT7mzf2L48LDg-ybeG4r-119" value="Volume Gateway can be deployed on-premises or &lt;br&gt;in AWS as an Amazon EC2 Instance&amp;nbsp;" style="text;html=1;align=center;verticalAlign=middle;resizable=0;points=[];autosize=1;strokeColor=none;fillColor=none;fontSize=10;fontColor=#000000;" parent="1" vertex="1">
          <mxGeometry x="1755" y="642.5" width="240" height="40" as="geometry" />
        </mxCell>
        <mxCell id="cT7mzf2L48LDg-ybeG4r-120" value="" style="rounded=1;whiteSpace=wrap;html=1;fontSize=10;fontColor=#000000;fillColor=none;" parent="1" vertex="1">
          <mxGeometry x="1762" y="645.5" width="227" height="31.5" as="geometry" />
        </mxCell>
        <mxCell id="cT7mzf2L48LDg-ybeG4r-121" value="S3" style="sketch=0;points=[[0,0,0],[0.25,0,0],[0.5,0,0],[0.75,0,0],[1,0,0],[0,1,0],[0.25,1,0],[0.5,1,0],[0.75,1,0],[1,1,0],[0,0.25,0],[0,0.5,0],[0,0.75,0],[1,0.25,0],[1,0.5,0],[1,0.75,0]];outlineConnect=0;fontColor=#232F3E;gradientColor=none;gradientDirection=north;fillColor=#000000;strokeColor=#ffffff;dashed=0;verticalLabelPosition=bottom;verticalAlign=top;align=center;html=1;fontSize=12;fontStyle=0;aspect=fixed;shape=mxgraph.aws4.resourceIcon;resIcon=mxgraph.aws4.s3;" parent="1" vertex="1">
          <mxGeometry x="1723" y="864.5" width="40" height="40" as="geometry" />
        </mxCell>
        <mxCell id="cT7mzf2L48LDg-ybeG4r-123" value="&lt;b&gt;(1)(Store data on S3)&lt;/b&gt;" style="text;html=1;align=center;verticalAlign=middle;resizable=0;points=[];autosize=1;strokeColor=none;fillColor=none;fontSize=10;fontColor=#000000;" parent="1" vertex="1">
          <mxGeometry x="1690" y="841" width="120" height="30" as="geometry" />
        </mxCell>
        <mxCell id="cT7mzf2L48LDg-ybeG4r-124" value="&lt;font style=&quot;font-size: 10px;&quot;&gt;Cache Volume&lt;/font&gt;" style="sketch=0;outlineConnect=0;fontColor=#232F3E;gradientColor=none;fillColor=#000000;strokeColor=none;dashed=0;verticalLabelPosition=bottom;verticalAlign=top;align=center;html=1;fontSize=12;fontStyle=0;aspect=fixed;pointerEvents=1;shape=mxgraph.aws4.cached_volume;" parent="1" vertex="1">
          <mxGeometry x="1602" y="864.5" width="31.8" height="40" as="geometry" />
        </mxCell>
        <mxCell id="cT7mzf2L48LDg-ybeG4r-126" value="on-premise&lt;br&gt;Servers" style="sketch=0;pointerEvents=1;shadow=0;dashed=0;html=1;strokeColor=none;fillColor=#000000;labelPosition=center;verticalLabelPosition=bottom;verticalAlign=top;outlineConnect=0;align=center;shape=mxgraph.office.servers.on_premises_server;fontSize=10;fontColor=#000000;" parent="1" vertex="1">
          <mxGeometry x="1453" y="864.5" width="40" height="40" as="geometry" />
        </mxCell>
        <mxCell id="cT7mzf2L48LDg-ybeG4r-127" value="&lt;b&gt;offer a substantial cost savings &lt;br&gt;on primary storage and minimize &lt;br&gt;the need to scale your storage &lt;br&gt;on-premises&lt;/b&gt;" style="text;html=1;align=center;verticalAlign=middle;resizable=0;points=[];autosize=1;strokeColor=none;fillColor=none;fontSize=10;fontColor=#000000;" parent="1" vertex="1">
          <mxGeometry x="1539" y="926" width="180" height="60" as="geometry" />
        </mxCell>
        <mxCell id="cT7mzf2L48LDg-ybeG4r-128" value="" style="endArrow=classic;startArrow=classic;html=1;rounded=0;fontSize=10;fontColor=#000000;" parent="1" edge="1">
          <mxGeometry width="50" height="50" relative="1" as="geometry">
            <mxPoint x="1507" y="892" as="sourcePoint" />
            <mxPoint x="1593" y="892" as="targetPoint" />
          </mxGeometry>
        </mxCell>
        <mxCell id="cT7mzf2L48LDg-ybeG4r-129" value="" style="endArrow=classic;startArrow=classic;html=1;rounded=0;fontSize=10;fontColor=#000000;" parent="1" edge="1">
          <mxGeometry width="50" height="50" relative="1" as="geometry">
            <mxPoint x="1636" y="891" as="sourcePoint" />
            <mxPoint x="1722" y="891" as="targetPoint" />
          </mxGeometry>
        </mxCell>
        <mxCell id="cT7mzf2L48LDg-ybeG4r-130" value="" style="endArrow=none;html=1;rounded=0;" parent="1" edge="1">
          <mxGeometry width="50" height="50" relative="1" as="geometry">
            <mxPoint x="1926" y="714" as="sourcePoint" />
            <mxPoint x="1917" y="680" as="targetPoint" />
          </mxGeometry>
        </mxCell>
        <mxCell id="cT7mzf2L48LDg-ybeG4r-131" value="&lt;font style=&quot;font-size: 13px;&quot;&gt;Stored volumes&lt;/font&gt;" style="text;html=1;align=center;verticalAlign=middle;resizable=0;points=[];autosize=1;strokeColor=none;fillColor=none;fontSize=10;fontColor=#000000;" parent="1" vertex="1">
          <mxGeometry x="1917" y="707" width="110" height="30" as="geometry" />
        </mxCell>
        <mxCell id="cT7mzf2L48LDg-ybeG4r-133" value="" style="endArrow=none;html=1;rounded=0;" parent="1" edge="1">
          <mxGeometry width="50" height="50" relative="1" as="geometry">
            <mxPoint x="1780" y="780" as="sourcePoint" />
            <mxPoint x="1822" y="681" as="targetPoint" />
          </mxGeometry>
        </mxCell>
        <mxCell id="cT7mzf2L48LDg-ybeG4r-136" value="&lt;font style=&quot;font-size: 13px;&quot;&gt;cached volumes&lt;/font&gt;" style="text;html=1;align=center;verticalAlign=middle;resizable=0;points=[];autosize=1;strokeColor=none;fillColor=none;fontSize=10;fontColor=#000000;" parent="1" vertex="1">
          <mxGeometry x="1701" y="778" width="120" height="30" as="geometry" />
        </mxCell>
        <mxCell id="cf06Xw0DI_L7y3Jn1LJ6-1" value="&lt;div style=&quot;text-align: left;&quot;&gt;&lt;span style=&quot;background-color: initial;&quot;&gt;backup&lt;/span&gt;&lt;/div&gt;&lt;span style=&quot;background-color: initial;&quot;&gt;&lt;div style=&quot;text-align: left;&quot;&gt;&lt;span style=&quot;background-color: initial;&quot;&gt;archivng&lt;/span&gt;&lt;/div&gt;&lt;/span&gt;&lt;span style=&quot;background-color: initial;&quot;&gt;&lt;div style=&quot;text-align: left;&quot;&gt;&lt;span style=&quot;background-color: initial;&quot;&gt;migration&lt;/span&gt;&lt;/div&gt;&lt;/span&gt;&lt;span style=&quot;background-color: initial;&quot;&gt;&lt;div style=&quot;text-align: left;&quot;&gt;&lt;span style=&quot;background-color: initial;&quot;&gt;disaster recovery&lt;/span&gt;&lt;/div&gt;&lt;/span&gt;" style="text;html=1;align=center;verticalAlign=middle;resizable=0;points=[];autosize=1;strokeColor=none;fillColor=none;fontSize=10;" vertex="1" parent="1">
          <mxGeometry x="1733" y="147.89999999999998" width="100" height="60" as="geometry" />
        </mxCell>
        <mxCell id="cf06Xw0DI_L7y3Jn1LJ6-2" value="" style="strokeWidth=1;html=1;shape=mxgraph.flowchart.annotation_1;align=left;pointerEvents=1;fontColor=#000033;fillColor=none;strokeColor=#3399FF;" vertex="1" parent="1">
          <mxGeometry x="1743" y="152" width="12" height="50" as="geometry" />
        </mxCell>
        <mxCell id="cf06Xw0DI_L7y3Jn1LJ6-3" value="" style="strokeWidth=1;html=1;shape=mxgraph.flowchart.annotation_1;align=left;pointerEvents=1;fontColor=#000033;fillColor=none;direction=west;strokeColor=#3399FF;" vertex="1" parent="1">
          <mxGeometry x="1810" y="151" width="12" height="50" as="geometry" />
        </mxCell>
        <mxCell id="cf06Xw0DI_L7y3Jn1LJ6-7" value="" style="ellipse;shape=cloud;whiteSpace=wrap;html=1;fontSize=10;fillColor=#F58534;" vertex="1" parent="1">
          <mxGeometry x="1623" y="814.5" width="60" height="50" as="geometry" />
        </mxCell>
        <mxCell id="cf06Xw0DI_L7y3Jn1LJ6-8" value="" style="outlineConnect=0;dashed=0;verticalLabelPosition=bottom;verticalAlign=top;align=center;html=1;shape=mxgraph.aws3.cloud_2;fillColor=#F58534;gradientColor=none;fontSize=10;" vertex="1" parent="1">
          <mxGeometry x="1641" y="828.5" width="32" height="26" as="geometry" />
        </mxCell>
        <mxCell id="cf06Xw0DI_L7y3Jn1LJ6-9" value="copy of &lt;b&gt;&lt;font color=&quot;#ff3333&quot;&gt;frequently &lt;/font&gt;&lt;/b&gt;&lt;br&gt;accessed data &lt;br&gt;subsets locally" style="text;html=1;align=center;verticalAlign=middle;resizable=0;points=[];autosize=1;strokeColor=none;fillColor=none;fontSize=10;" vertex="1" parent="1">
          <mxGeometry x="1426" y="931" width="110" height="50" as="geometry" />
        </mxCell>
        <mxCell id="cf06Xw0DI_L7y3Jn1LJ6-10" value="" style="rounded=1;whiteSpace=wrap;html=1;fontSize=13;fontColor=#000000;fillColor=none;gradientColor=none;strokeColor=#FF9933;dashed=1;" vertex="1" parent="1">
          <mxGeometry x="1964" y="740" width="275" height="170" as="geometry" />
        </mxCell>
        <mxCell id="cf06Xw0DI_L7y3Jn1LJ6-12" value="S3" style="sketch=0;points=[[0,0,0],[0.25,0,0],[0.5,0,0],[0.75,0,0],[1,0,0],[0,1,0],[0.25,1,0],[0.5,1,0],[0.75,1,0],[1,1,0],[0,0.25,0],[0,0.5,0],[0,0.75,0],[1,0.25,0],[1,0.5,0],[1,0.75,0]];outlineConnect=0;fontColor=#232F3E;gradientColor=none;gradientDirection=north;fillColor=#000000;strokeColor=#ffffff;dashed=0;verticalLabelPosition=bottom;verticalAlign=top;align=center;html=1;fontSize=12;fontStyle=0;aspect=fixed;shape=mxgraph.aws4.resourceIcon;resIcon=mxgraph.aws4.s3;" vertex="1" parent="1">
          <mxGeometry x="2145" y="793.5" width="40" height="40" as="geometry" />
        </mxCell>
        <mxCell id="cf06Xw0DI_L7y3Jn1LJ6-13" value="&lt;b&gt;(1)(back up point-in-time &lt;br&gt;snapshots of on-premises &lt;br&gt;Gateway Data)&lt;/b&gt;" style="text;html=1;align=center;verticalAlign=middle;resizable=0;points=[];autosize=1;strokeColor=none;fillColor=none;fontSize=10;fontColor=#000000;" vertex="1" parent="1">
          <mxGeometry x="2090" y="747" width="150" height="50" as="geometry" />
        </mxCell>
        <mxCell id="cf06Xw0DI_L7y3Jn1LJ6-15" value="on-premises&lt;br&gt;Gateway" style="sketch=0;pointerEvents=1;shadow=0;dashed=0;html=1;strokeColor=none;fillColor=#000000;labelPosition=center;verticalLabelPosition=bottom;verticalAlign=top;outlineConnect=0;align=center;shape=mxgraph.office.servers.on_premises_server;fontSize=10;fontColor=#000000;" vertex="1" parent="1">
          <mxGeometry x="1875" y="793.5" width="40" height="40" as="geometry" />
        </mxCell>
        <mxCell id="cf06Xw0DI_L7y3Jn1LJ6-16" value="&lt;b&gt;offer a substantial cost savings &lt;br&gt;on primary storage and minimize &lt;br&gt;the need to scale your storage &lt;br&gt;on-premises&lt;/b&gt;" style="text;html=1;align=center;verticalAlign=middle;resizable=0;points=[];autosize=1;strokeColor=none;fillColor=none;fontSize=10;fontColor=#000000;" vertex="1" parent="1">
          <mxGeometry x="1961" y="855" width="180" height="60" as="geometry" />
        </mxCell>
        <mxCell id="cf06Xw0DI_L7y3Jn1LJ6-17" value="" style="endArrow=classic;startArrow=classic;html=1;rounded=0;fontSize=10;fontColor=#000000;" edge="1" parent="1">
          <mxGeometry width="50" height="50" relative="1" as="geometry">
            <mxPoint x="1929" y="821" as="sourcePoint" />
            <mxPoint x="2015" y="821" as="targetPoint" />
          </mxGeometry>
        </mxCell>
        <mxCell id="cf06Xw0DI_L7y3Jn1LJ6-18" value="" style="endArrow=classic;startArrow=classic;html=1;rounded=0;fontSize=10;fontColor=#000000;" edge="1" parent="1">
          <mxGeometry width="50" height="50" relative="1" as="geometry">
            <mxPoint x="2058" y="820" as="sourcePoint" />
            <mxPoint x="2144" y="820" as="targetPoint" />
          </mxGeometry>
        </mxCell>
        <mxCell id="cf06Xw0DI_L7y3Jn1LJ6-23" value="&lt;span style=&quot;color: rgb(0, 0, 0);&quot;&gt;store all&amp;nbsp;&lt;/span&gt;&lt;font color=&quot;#000000&quot;&gt;your &lt;/font&gt;&lt;br&gt;&lt;font color=&quot;#000000&quot;&gt;data &lt;/font&gt;&lt;b style=&quot;&quot;&gt;locally for &lt;br&gt;low latency&lt;/b&gt;&lt;font color=&quot;#000000&quot;&gt;&amp;nbsp;&lt;/font&gt;" style="text;html=1;align=center;verticalAlign=middle;resizable=0;points=[];autosize=1;strokeColor=none;fillColor=none;fontSize=10;fontColor=#FF3333;" vertex="1" parent="1">
          <mxGeometry x="1852" y="859" width="90" height="50" as="geometry" />
        </mxCell>
        <mxCell id="cf06Xw0DI_L7y3Jn1LJ6-29" value="" style="sketch=0;outlineConnect=0;fontColor=#232F3E;gradientColor=none;strokeColor=#232F3E;fillColor=none;dashed=0;verticalLabelPosition=bottom;verticalAlign=top;align=center;html=1;fontSize=12;fontStyle=0;shape=mxgraph.aws4.resourceIcon;resIcon=mxgraph.aws4.non_cached_volume;" vertex="1" parent="1">
          <mxGeometry x="2000" y="793.5" width="75" height="56.5" as="geometry" />
        </mxCell>
        <mxCell id="cf06Xw0DI_L7y3Jn1LJ6-30" value="Stored Voume" style="text;html=1;align=center;verticalAlign=middle;resizable=0;points=[];autosize=1;strokeColor=none;fillColor=none;fontSize=10;fontColor=#000000;" vertex="1" parent="1">
          <mxGeometry x="1993.5" y="837.5" width="90" height="30" as="geometry" />
        </mxCell>
        <mxCell id="cf06Xw0DI_L7y3Jn1LJ6-31" value="" style="group" vertex="1" connectable="0" parent="1">
          <mxGeometry x="1979" y="740" width="60" height="50" as="geometry" />
        </mxCell>
        <mxCell id="cf06Xw0DI_L7y3Jn1LJ6-19" value="" style="ellipse;shape=cloud;whiteSpace=wrap;html=1;fontSize=10;fillColor=#F58534;" vertex="1" parent="cf06Xw0DI_L7y3Jn1LJ6-31">
          <mxGeometry width="60" height="50" as="geometry" />
        </mxCell>
        <mxCell id="cf06Xw0DI_L7y3Jn1LJ6-20" value="" style="outlineConnect=0;dashed=0;verticalLabelPosition=bottom;verticalAlign=top;align=center;html=1;shape=mxgraph.aws3.cloud_2;fillColor=#F58534;gradientColor=none;fontSize=10;" vertex="1" parent="cf06Xw0DI_L7y3Jn1LJ6-31">
          <mxGeometry x="14" y="16" width="32" height="26" as="geometry" />
        </mxCell>
        <mxCell id="cf06Xw0DI_L7y3Jn1LJ6-32" value="&lt;b&gt;cost-effectively and durably &lt;br&gt;archive backup data in &lt;br&gt;&lt;font color=&quot;#ff3333&quot;&gt;S3 Glacier Flexible Retrieval &lt;/font&gt;or &lt;br&gt;&lt;font color=&quot;#ff3333&quot;&gt;S3 Glacier Deep Archive&lt;/font&gt;&lt;/b&gt;" style="text;html=1;align=center;verticalAlign=middle;resizable=0;points=[];autosize=1;strokeColor=none;fillColor=none;fontSize=10;fontColor=#000000;" vertex="1" parent="1">
          <mxGeometry x="1622" y="426" width="170" height="60" as="geometry" />
        </mxCell>
        <mxCell id="cf06Xw0DI_L7y3Jn1LJ6-34" value="&lt;span style=&quot;&quot;&gt;provides low latency and efficient access to in-cloud FSx&lt;/span&gt;&lt;br style=&quot;&quot;&gt;&lt;span style=&quot;&quot;&gt;for Windows File Server file shares from your on-premises facility&lt;/span&gt;" style="text;html=1;align=left;verticalAlign=middle;resizable=0;points=[];autosize=1;strokeColor=none;fillColor=none;fontSize=10;fontColor=#000000;fontStyle=1" vertex="1" parent="1">
          <mxGeometry x="1890" y="200" width="340" height="40" as="geometry" />
        </mxCell>
        <mxCell id="cf06Xw0DI_L7y3Jn1LJ6-35" value="" style="strokeWidth=1;html=1;shape=mxgraph.flowchart.annotation_1;align=left;pointerEvents=1;fontColor=#000033;fillColor=none;strokeColor=#3399FF;" vertex="1" parent="1">
          <mxGeometry x="1890" y="205" width="12" height="27" as="geometry" />
        </mxCell>
        <mxCell id="cf06Xw0DI_L7y3Jn1LJ6-36" value="" style="strokeWidth=1;html=1;shape=mxgraph.flowchart.annotation_1;align=left;pointerEvents=1;fontColor=#000033;fillColor=none;direction=west;strokeColor=#3399FF;" vertex="1" parent="1">
          <mxGeometry x="2192" y="205" width="12" height="27" as="geometry" />
        </mxCell>
        <mxCell id="cf06Xw0DI_L7y3Jn1LJ6-42" value="" style="rounded=1;whiteSpace=wrap;html=1;fontSize=13;fontColor=#000000;fillColor=none;gradientColor=none;strokeColor=#FF9933;dashed=1;" vertex="1" parent="1">
          <mxGeometry x="1509.5" y="552" width="123" height="175.5" as="geometry" />
        </mxCell>
        <mxCell id="cf06Xw0DI_L7y3Jn1LJ6-44" value="S3" style="sketch=0;points=[[0,0,0],[0.25,0,0],[0.5,0,0],[0.75,0,0],[1,0,0],[0,1,0],[0.25,1,0],[0.5,1,0],[0.75,1,0],[1,1,0],[0,0.25,0],[0,0.5,0],[0,0.75,0],[1,0.25,0],[1,0.5,0],[1,0.75,0]];outlineConnect=0;fontColor=#232F3E;gradientColor=none;gradientDirection=north;fillColor=#000000;strokeColor=#ffffff;dashed=0;verticalLabelPosition=bottom;verticalAlign=top;align=center;html=1;fontSize=12;fontStyle=0;aspect=fixed;shape=mxgraph.aws4.resourceIcon;resIcon=mxgraph.aws4.s3;" vertex="1" parent="1">
          <mxGeometry x="1525.5" y="617.5" width="40" height="40" as="geometry" />
        </mxCell>
        <mxCell id="cf06Xw0DI_L7y3Jn1LJ6-47" value="on-premise&lt;br&gt;Servers" style="sketch=0;pointerEvents=1;shadow=0;dashed=0;html=1;strokeColor=none;fillColor=#000000;labelPosition=center;verticalLabelPosition=bottom;verticalAlign=top;outlineConnect=0;align=center;shape=mxgraph.office.servers.on_premises_server;fontSize=10;fontColor=#000000;" vertex="1" parent="1">
          <mxGeometry x="1332.5" y="588" width="40" height="40" as="geometry" />
        </mxCell>
        <mxCell id="cf06Xw0DI_L7y3Jn1LJ6-50" value="" style="endArrow=classic;startArrow=classic;html=1;rounded=0;fontSize=10;fontColor=#000000;" edge="1" parent="1">
          <mxGeometry width="50" height="50" relative="1" as="geometry">
            <mxPoint x="1954.5" y="1400" as="sourcePoint" />
            <mxPoint x="2040.5" y="1400" as="targetPoint" />
          </mxGeometry>
        </mxCell>
        <mxCell id="cf06Xw0DI_L7y3Jn1LJ6-54" value="" style="group" vertex="1" connectable="0" parent="1">
          <mxGeometry x="1566.5" y="555.5" width="60" height="49.5" as="geometry" />
        </mxCell>
        <mxCell id="cf06Xw0DI_L7y3Jn1LJ6-51" value="" style="ellipse;shape=cloud;whiteSpace=wrap;html=1;fontSize=10;fillColor=#F58534;" vertex="1" parent="cf06Xw0DI_L7y3Jn1LJ6-54">
          <mxGeometry width="60" height="49.5" as="geometry" />
        </mxCell>
        <mxCell id="cf06Xw0DI_L7y3Jn1LJ6-52" value="" style="outlineConnect=0;dashed=0;verticalLabelPosition=bottom;verticalAlign=top;align=center;html=1;shape=mxgraph.aws3.cloud_2;fillColor=#F58534;gradientColor=none;fontSize=10;" vertex="1" parent="cf06Xw0DI_L7y3Jn1LJ6-54">
          <mxGeometry x="15" y="15" width="32" height="26" as="geometry" />
        </mxCell>
        <mxCell id="cf06Xw0DI_L7y3Jn1LJ6-55" value="&lt;font style=&quot;font-size: 10px;&quot;&gt;FIle Gateway&lt;/font&gt;" style="sketch=0;outlineConnect=0;fontColor=#232F3E;gradientColor=none;fillColor=#000000;strokeColor=none;dashed=0;verticalLabelPosition=bottom;verticalAlign=top;align=center;html=1;fontSize=12;fontStyle=0;pointerEvents=1;shape=mxgraph.aws4.file_gateway;" vertex="1" parent="1">
          <mxGeometry x="1419.5" y="588" width="32" height="40" as="geometry" />
        </mxCell>
        <mxCell id="cf06Xw0DI_L7y3Jn1LJ6-56" value="" style="endArrow=none;html=1;rounded=0;fontSize=10;fontColor=#000000;" edge="1" parent="1">
          <mxGeometry width="50" height="50" relative="1" as="geometry">
            <mxPoint x="1375.5" y="617.5" as="sourcePoint" />
            <mxPoint x="1412.5" y="617.5" as="targetPoint" />
          </mxGeometry>
        </mxCell>
        <mxCell id="cf06Xw0DI_L7y3Jn1LJ6-57" value="Stored" style="text;html=1;align=center;verticalAlign=middle;resizable=0;points=[];autosize=1;strokeColor=none;fillColor=none;fontSize=10;fontColor=#000000;" vertex="1" parent="1">
          <mxGeometry x="2012.5" y="796.5" width="50" height="30" as="geometry" />
        </mxCell>
        <mxCell id="cf06Xw0DI_L7y3Jn1LJ6-58" value="&lt;b&gt;virtual &lt;br&gt;software&lt;/b&gt;" style="text;html=1;align=center;verticalAlign=middle;resizable=0;points=[];autosize=1;strokeColor=none;fillColor=none;fontSize=10;fontColor=#000000;" vertex="1" parent="1">
          <mxGeometry x="1406.5" y="647.5" width="60" height="40" as="geometry" />
        </mxCell>
        <mxCell id="cf06Xw0DI_L7y3Jn1LJ6-59" value="" style="endArrow=classic;html=1;rounded=0;fontSize=10;fontColor=#000000;" edge="1" parent="1">
          <mxGeometry width="50" height="50" relative="1" as="geometry">
            <mxPoint x="1456.5" y="618.5" as="sourcePoint" />
            <mxPoint x="1504.5" y="618.5" as="targetPoint" />
          </mxGeometry>
        </mxCell>
        <mxCell id="cf06Xw0DI_L7y3Jn1LJ6-62" value="" style="sketch=0;points=[[0,0,0],[0.25,0,0],[0.5,0,0],[0.75,0,0],[1,0,0],[0,1,0],[0.25,1,0],[0.5,1,0],[0.75,1,0],[1,1,0],[0,0.25,0],[0,0.5,0],[0,0.75,0],[1,0.25,0],[1,0.5,0],[1,0.75,0]];outlineConnect=0;fontColor=#232F3E;gradientColor=#60A337;gradientDirection=north;fillColor=#277116;strokeColor=#ffffff;dashed=0;verticalLabelPosition=bottom;verticalAlign=top;align=center;html=1;fontSize=12;fontStyle=0;aspect=fixed;shape=mxgraph.aws4.resourceIcon;resIcon=mxgraph.aws4.storage_gateway;" vertex="1" parent="1">
          <mxGeometry x="1525.5" y="563.5" width="40" height="40" as="geometry" />
        </mxCell>
        <mxCell id="cf06Xw0DI_L7y3Jn1LJ6-63" value="https" style="text;html=1;align=center;verticalAlign=middle;resizable=0;points=[];autosize=1;strokeColor=none;fillColor=none;fontSize=10;fontColor=#000000;" vertex="1" parent="1">
          <mxGeometry x="1451.5" y="593" width="50" height="30" as="geometry" />
        </mxCell>
        <mxCell id="cf06Xw0DI_L7y3Jn1LJ6-64" value="you can store and &lt;br&gt;retrieve objects in &lt;br&gt;Amazon S3&amp;nbsp;" style="text;html=1;align=left;verticalAlign=middle;resizable=0;points=[];autosize=1;strokeColor=none;fillColor=none;fontSize=10;fontColor=#000000;fontStyle=1" vertex="1" parent="1">
          <mxGeometry x="1523.5" y="672.5" width="110" height="50" as="geometry" />
        </mxCell>
        <mxCell id="cf06Xw0DI_L7y3Jn1LJ6-65" value="" style="endArrow=none;html=1;rounded=0;fontSize=12;" edge="1" parent="1">
          <mxGeometry width="50" height="50" relative="1" as="geometry">
            <mxPoint x="702" y="149" as="sourcePoint" />
            <mxPoint x="702" y="130" as="targetPoint" />
          </mxGeometry>
        </mxCell>
        <mxCell id="cf06Xw0DI_L7y3Jn1LJ6-66" value="&lt;font style=&quot;font-size: 12px;&quot;&gt;Instance Storage&amp;nbsp;&lt;/font&gt;" style="text;html=1;align=center;verticalAlign=middle;resizable=0;points=[];autosize=1;strokeColor=default;fillColor=none;fontSize=10;fontColor=#000000;" vertex="1" parent="1">
          <mxGeometry x="644" y="148" width="120" height="30" as="geometry" />
        </mxCell>
        <mxCell id="cf06Xw0DI_L7y3Jn1LJ6-67" value="&lt;b&gt;&lt;font style=&quot;font-size: 10px;&quot;&gt;Temporary level&amp;nbsp;storage&lt;/font&gt;&lt;/b&gt;" style="text;html=1;align=center;verticalAlign=middle;resizable=0;points=[];autosize=1;strokeColor=none;fillColor=none;fontSize=12;fontColor=#000000;" vertex="1" parent="1">
          <mxGeometry x="634" y="173" width="140" height="30" as="geometry" />
        </mxCell>
        <mxCell id="cf06Xw0DI_L7y3Jn1LJ6-68" value="Ephimeral&lt;br&gt;volumes" style="outlineConnect=0;dashed=0;verticalLabelPosition=bottom;verticalAlign=top;align=center;html=1;shape=mxgraph.aws3.non_cached_volume;fillColor=#000000;gradientColor=none;fontSize=10;fontColor=#000000;strokeColor=default;" vertex="1" parent="1">
          <mxGeometry x="680" y="204" width="40" height="40" as="geometry" />
        </mxCell>
        <mxCell id="cf06Xw0DI_L7y3Jn1LJ6-69" value="&lt;span style=&quot;color: rgb(84, 91, 100); font-family: &amp;quot;Amazon Ember&amp;quot;, &amp;quot;Helvetica Neue&amp;quot;, Roboto, Arial, sans-serif; text-align: start; background-color: rgb(255, 255, 255);&quot;&gt;© 2022, Scadip SL&amp;nbsp;&lt;/span&gt;&lt;span style=&quot;color: rgb(84, 91, 100); font-family: &amp;quot;Amazon Ember&amp;quot;, &amp;quot;Helvetica Neue&amp;quot;, Roboto, Arial, sans-serif; text-align: start; background-color: rgb(255, 255, 255);&quot;&gt;. All rights reserved.&lt;/span&gt;" style="text;html=1;align=center;verticalAlign=middle;resizable=0;points=[];autosize=1;strokeColor=none;fillColor=none;fontSize=12;" vertex="1" parent="1">
          <mxGeometry x="60" y="1020" width="230" height="20" as="geometry" />
        </mxCell>
      </root>
    </mxGraphModel>
  </diagram>
</mxfile>
